<mxfile host="app.diagrams.net" modified="2021-05-24T04:34:55.785Z" agent="5.0 (Windows NT 10.0; Win64; x64) AppleWebKit/537.36 (KHTML, like Gecko) Chrome/90.0.4430.212 Safari/537.36" etag="KsILgViywWHfVwKWo-u5" version="14.7.0" type="github">
  <diagram id="jV_8GyvsECN-NlKF24YV" name="Page-1">
    <mxGraphModel dx="868" dy="1250" grid="0" gridSize="10" guides="1" tooltips="1" connect="1" arrows="1" fold="1" page="0" pageScale="1" pageWidth="850" pageHeight="1100" math="0" shadow="0">
      <root>
        <mxCell id="0" />
        <mxCell id="1" parent="0" />
        <mxCell id="wzEOH2TxMQ3HN0bDWZ4B-4" value="基于web的短视频平台" style="rounded=0;whiteSpace=wrap;html=1;" vertex="1" parent="1">
          <mxGeometry x="370" y="-700" width="140" height="40" as="geometry" />
        </mxCell>
        <mxCell id="wzEOH2TxMQ3HN0bDWZ4B-5" value="用户登录" style="rounded=0;whiteSpace=wrap;html=1;fillColor=#ffffff;" vertex="1" parent="1">
          <mxGeometry x="25" y="-600" width="120" height="40" as="geometry" />
        </mxCell>
        <mxCell id="wzEOH2TxMQ3HN0bDWZ4B-6" value="用户注册" style="rounded=0;whiteSpace=wrap;html=1;fillColor=#ffffff;" vertex="1" parent="1">
          <mxGeometry x="10" y="-520" width="30" height="120" as="geometry" />
        </mxCell>
        <mxCell id="wzEOH2TxMQ3HN0bDWZ4B-7" value="用户登录" style="rounded=0;whiteSpace=wrap;html=1;fillColor=#ffffff;" vertex="1" parent="1">
          <mxGeometry x="70" y="-520" width="30" height="120" as="geometry" />
        </mxCell>
        <mxCell id="wzEOH2TxMQ3HN0bDWZ4B-8" value="忘记密码" style="rounded=0;whiteSpace=wrap;html=1;fillColor=#ffffff;" vertex="1" parent="1">
          <mxGeometry x="120" y="-520" width="30" height="120" as="geometry" />
        </mxCell>
        <mxCell id="wzEOH2TxMQ3HN0bDWZ4B-13" value="用户信息更改" style="rounded=0;whiteSpace=wrap;html=1;fillColor=#ffffff;" vertex="1" parent="1">
          <mxGeometry x="200" y="-600" width="120" height="40" as="geometry" />
        </mxCell>
        <mxCell id="wzEOH2TxMQ3HN0bDWZ4B-14" value="视频" style="rounded=0;whiteSpace=wrap;html=1;fillColor=#ffffff;" vertex="1" parent="1">
          <mxGeometry x="455" y="-600" width="120" height="40" as="geometry" />
        </mxCell>
        <mxCell id="wzEOH2TxMQ3HN0bDWZ4B-15" value="用户" style="rounded=0;whiteSpace=wrap;html=1;fillColor=#ffffff;" vertex="1" parent="1">
          <mxGeometry x="660" y="-600" width="120" height="40" as="geometry" />
        </mxCell>
        <mxCell id="wzEOH2TxMQ3HN0bDWZ4B-16" value="昵称更改" style="rounded=0;whiteSpace=wrap;html=1;fillColor=#ffffff;" vertex="1" parent="1">
          <mxGeometry x="170" y="-523" width="30" height="120" as="geometry" />
        </mxCell>
        <mxCell id="wzEOH2TxMQ3HN0bDWZ4B-17" value="性别更改" style="rounded=0;whiteSpace=wrap;html=1;fillColor=#ffffff;" vertex="1" parent="1">
          <mxGeometry x="230" y="-520" width="30" height="120" as="geometry" />
        </mxCell>
        <mxCell id="wzEOH2TxMQ3HN0bDWZ4B-18" value="出生日期更改" style="rounded=0;whiteSpace=wrap;html=1;fillColor=#ffffff;" vertex="1" parent="1">
          <mxGeometry x="280" y="-520" width="30" height="120" as="geometry" />
        </mxCell>
        <mxCell id="wzEOH2TxMQ3HN0bDWZ4B-19" value="头像更改" style="rounded=0;whiteSpace=wrap;html=1;fillColor=#ffffff;" vertex="1" parent="1">
          <mxGeometry x="330" y="-520" width="30" height="120" as="geometry" />
        </mxCell>
        <mxCell id="wzEOH2TxMQ3HN0bDWZ4B-20" value="视频上传" style="rounded=0;whiteSpace=wrap;html=1;fillColor=#ffffff;" vertex="1" parent="1">
          <mxGeometry x="380" y="-520" width="30" height="120" as="geometry" />
        </mxCell>
        <mxCell id="wzEOH2TxMQ3HN0bDWZ4B-21" value="视频观看" style="rounded=0;whiteSpace=wrap;html=1;fillColor=#ffffff;" vertex="1" parent="1">
          <mxGeometry x="425" y="-520" width="30" height="120" as="geometry" />
        </mxCell>
        <mxCell id="wzEOH2TxMQ3HN0bDWZ4B-23" value="视频评论" style="rounded=0;whiteSpace=wrap;html=1;fillColor=#ffffff;" vertex="1" parent="1">
          <mxGeometry x="470" y="-520" width="30" height="120" as="geometry" />
        </mxCell>
        <mxCell id="wzEOH2TxMQ3HN0bDWZ4B-24" value="视频收藏" style="rounded=0;whiteSpace=wrap;html=1;fillColor=#ffffff;" vertex="1" parent="1">
          <mxGeometry x="510" y="-520" width="30" height="120" as="geometry" />
        </mxCell>
        <mxCell id="wzEOH2TxMQ3HN0bDWZ4B-27" value="视频点赞" style="rounded=0;whiteSpace=wrap;html=1;fillColor=#ffffff;" vertex="1" parent="1">
          <mxGeometry x="550" y="-520" width="30" height="120" as="geometry" />
        </mxCell>
        <mxCell id="wzEOH2TxMQ3HN0bDWZ4B-28" value="视频审核" style="rounded=0;whiteSpace=wrap;html=1;fillColor=#ffffff;" vertex="1" parent="1">
          <mxGeometry x="600" y="-520" width="30" height="120" as="geometry" />
        </mxCell>
        <mxCell id="wzEOH2TxMQ3HN0bDWZ4B-29" value="关注用户" style="rounded=0;whiteSpace=wrap;html=1;fillColor=#ffffff;" vertex="1" parent="1">
          <mxGeometry x="650" y="-520" width="30" height="120" as="geometry" />
        </mxCell>
        <mxCell id="wzEOH2TxMQ3HN0bDWZ4B-30" value="加粉" style="rounded=0;whiteSpace=wrap;html=1;fillColor=#ffffff;" vertex="1" parent="1">
          <mxGeometry x="700" y="-520" width="30" height="120" as="geometry" />
        </mxCell>
        <mxCell id="wzEOH2TxMQ3HN0bDWZ4B-31" value="个人主页" style="rounded=0;whiteSpace=wrap;html=1;fillColor=#ffffff;" vertex="1" parent="1">
          <mxGeometry x="750" y="-520" width="30" height="120" as="geometry" />
        </mxCell>
        <mxCell id="wzEOH2TxMQ3HN0bDWZ4B-35" value="" style="endArrow=none;html=1;exitX=0.5;exitY=0;exitDx=0;exitDy=0;" edge="1" parent="1" source="wzEOH2TxMQ3HN0bDWZ4B-8">
          <mxGeometry width="50" height="50" relative="1" as="geometry">
            <mxPoint x="130" y="-520" as="sourcePoint" />
            <mxPoint x="80" y="-540" as="targetPoint" />
            <Array as="points">
              <mxPoint x="135" y="-540" />
            </Array>
          </mxGeometry>
        </mxCell>
        <mxCell id="wzEOH2TxMQ3HN0bDWZ4B-38" value="" style="endArrow=none;html=1;" edge="1" parent="1">
          <mxGeometry width="50" height="50" relative="1" as="geometry">
            <mxPoint x="25" y="-520" as="sourcePoint" />
            <mxPoint x="80" y="-540" as="targetPoint" />
            <Array as="points">
              <mxPoint x="25" y="-540" />
            </Array>
          </mxGeometry>
        </mxCell>
        <mxCell id="wzEOH2TxMQ3HN0bDWZ4B-42" value="" style="endArrow=none;html=1;entryX=0.5;entryY=1;entryDx=0;entryDy=0;exitX=0.5;exitY=0;exitDx=0;exitDy=0;" edge="1" parent="1" source="wzEOH2TxMQ3HN0bDWZ4B-7" target="wzEOH2TxMQ3HN0bDWZ4B-5">
          <mxGeometry width="50" height="50" relative="1" as="geometry">
            <mxPoint x="80" y="-520" as="sourcePoint" />
            <mxPoint x="130" y="-570" as="targetPoint" />
          </mxGeometry>
        </mxCell>
        <mxCell id="wzEOH2TxMQ3HN0bDWZ4B-43" value="" style="endArrow=none;html=1;" edge="1" parent="1">
          <mxGeometry width="50" height="50" relative="1" as="geometry">
            <mxPoint x="190" y="-520" as="sourcePoint" />
            <mxPoint x="260" y="-550" as="targetPoint" />
            <Array as="points">
              <mxPoint x="190" y="-550" />
            </Array>
          </mxGeometry>
        </mxCell>
        <mxCell id="wzEOH2TxMQ3HN0bDWZ4B-44" value="" style="endArrow=none;html=1;" edge="1" parent="1">
          <mxGeometry width="50" height="50" relative="1" as="geometry">
            <mxPoint x="240" y="-520" as="sourcePoint" />
            <mxPoint x="240" y="-550" as="targetPoint" />
            <Array as="points">
              <mxPoint x="240" y="-550" />
            </Array>
          </mxGeometry>
        </mxCell>
        <mxCell id="wzEOH2TxMQ3HN0bDWZ4B-46" value="" style="endArrow=none;html=1;" edge="1" parent="1">
          <mxGeometry width="50" height="50" relative="1" as="geometry">
            <mxPoint x="350" y="-520" as="sourcePoint" />
            <mxPoint x="260" y="-550" as="targetPoint" />
            <Array as="points">
              <mxPoint x="350" y="-550" />
            </Array>
          </mxGeometry>
        </mxCell>
        <mxCell id="wzEOH2TxMQ3HN0bDWZ4B-47" value="" style="endArrow=none;html=1;" edge="1" parent="1">
          <mxGeometry width="50" height="50" relative="1" as="geometry">
            <mxPoint x="290" y="-520" as="sourcePoint" />
            <mxPoint x="290" y="-550" as="targetPoint" />
          </mxGeometry>
        </mxCell>
        <mxCell id="wzEOH2TxMQ3HN0bDWZ4B-50" value="" style="endArrow=none;html=1;entryX=0.5;entryY=1;entryDx=0;entryDy=0;" edge="1" parent="1" target="wzEOH2TxMQ3HN0bDWZ4B-13">
          <mxGeometry width="50" height="50" relative="1" as="geometry">
            <mxPoint x="260" y="-550" as="sourcePoint" />
            <mxPoint x="310" y="-600" as="targetPoint" />
          </mxGeometry>
        </mxCell>
        <mxCell id="wzEOH2TxMQ3HN0bDWZ4B-52" value="" style="endArrow=none;html=1;" edge="1" parent="1">
          <mxGeometry width="50" height="50" relative="1" as="geometry">
            <mxPoint x="390" y="-520" as="sourcePoint" />
            <mxPoint x="520" y="-550" as="targetPoint" />
            <Array as="points">
              <mxPoint x="390" y="-550" />
            </Array>
          </mxGeometry>
        </mxCell>
        <mxCell id="wzEOH2TxMQ3HN0bDWZ4B-53" value="" style="endArrow=none;html=1;" edge="1" parent="1">
          <mxGeometry width="50" height="50" relative="1" as="geometry">
            <mxPoint x="620" y="-520" as="sourcePoint" />
            <mxPoint x="520" y="-550" as="targetPoint" />
            <Array as="points">
              <mxPoint x="620" y="-550" />
            </Array>
          </mxGeometry>
        </mxCell>
        <mxCell id="wzEOH2TxMQ3HN0bDWZ4B-55" value="" style="endArrow=none;html=1;" edge="1" parent="1">
          <mxGeometry width="50" height="50" relative="1" as="geometry">
            <mxPoint x="440" y="-520" as="sourcePoint" />
            <mxPoint x="440" y="-550" as="targetPoint" />
          </mxGeometry>
        </mxCell>
        <mxCell id="wzEOH2TxMQ3HN0bDWZ4B-57" value="" style="endArrow=none;html=1;" edge="1" parent="1">
          <mxGeometry width="50" height="50" relative="1" as="geometry">
            <mxPoint x="484.5" y="-520" as="sourcePoint" />
            <mxPoint x="484.5" y="-550" as="targetPoint" />
          </mxGeometry>
        </mxCell>
        <mxCell id="wzEOH2TxMQ3HN0bDWZ4B-58" value="" style="endArrow=none;html=1;" edge="1" parent="1">
          <mxGeometry width="50" height="50" relative="1" as="geometry">
            <mxPoint x="525" y="-520" as="sourcePoint" />
            <mxPoint x="525" y="-550" as="targetPoint" />
          </mxGeometry>
        </mxCell>
        <mxCell id="wzEOH2TxMQ3HN0bDWZ4B-59" value="" style="endArrow=none;html=1;" edge="1" parent="1">
          <mxGeometry width="50" height="50" relative="1" as="geometry">
            <mxPoint x="570" y="-520" as="sourcePoint" />
            <mxPoint x="570" y="-550" as="targetPoint" />
          </mxGeometry>
        </mxCell>
        <mxCell id="wzEOH2TxMQ3HN0bDWZ4B-60" value="" style="endArrow=none;html=1;" edge="1" parent="1">
          <mxGeometry width="50" height="50" relative="1" as="geometry">
            <mxPoint x="660" y="-520" as="sourcePoint" />
            <mxPoint x="720" y="-550" as="targetPoint" />
            <Array as="points">
              <mxPoint x="660" y="-550" />
            </Array>
          </mxGeometry>
        </mxCell>
        <mxCell id="wzEOH2TxMQ3HN0bDWZ4B-61" value="" style="endArrow=none;html=1;" edge="1" parent="1">
          <mxGeometry width="50" height="50" relative="1" as="geometry">
            <mxPoint x="770" y="-520" as="sourcePoint" />
            <mxPoint x="720" y="-550" as="targetPoint" />
            <Array as="points">
              <mxPoint x="770" y="-550" />
            </Array>
          </mxGeometry>
        </mxCell>
        <mxCell id="wzEOH2TxMQ3HN0bDWZ4B-62" value="" style="endArrow=none;html=1;" edge="1" parent="1" target="wzEOH2TxMQ3HN0bDWZ4B-15">
          <mxGeometry width="50" height="50" relative="1" as="geometry">
            <mxPoint x="720" y="-520" as="sourcePoint" />
            <mxPoint x="770" y="-570" as="targetPoint" />
          </mxGeometry>
        </mxCell>
        <mxCell id="wzEOH2TxMQ3HN0bDWZ4B-63" value="" style="endArrow=none;html=1;" edge="1" parent="1">
          <mxGeometry width="50" height="50" relative="1" as="geometry">
            <mxPoint x="520" y="-550" as="sourcePoint" />
            <mxPoint x="520" y="-560" as="targetPoint" />
          </mxGeometry>
        </mxCell>
        <mxCell id="wzEOH2TxMQ3HN0bDWZ4B-64" value="" style="endArrow=none;html=1;" edge="1" parent="1">
          <mxGeometry width="50" height="50" relative="1" as="geometry">
            <mxPoint x="80" y="-600" as="sourcePoint" />
            <mxPoint x="470" y="-640" as="targetPoint" />
            <Array as="points">
              <mxPoint x="80" y="-640" />
            </Array>
          </mxGeometry>
        </mxCell>
        <mxCell id="wzEOH2TxMQ3HN0bDWZ4B-66" value="" style="endArrow=none;html=1;" edge="1" parent="1" source="wzEOH2TxMQ3HN0bDWZ4B-13">
          <mxGeometry width="50" height="50" relative="1" as="geometry">
            <mxPoint x="260" y="-620.7106781186548" as="sourcePoint" />
            <mxPoint x="260" y="-640" as="targetPoint" />
          </mxGeometry>
        </mxCell>
        <mxCell id="wzEOH2TxMQ3HN0bDWZ4B-67" value="" style="endArrow=none;html=1;" edge="1" parent="1">
          <mxGeometry width="50" height="50" relative="1" as="geometry">
            <mxPoint x="720" y="-600" as="sourcePoint" />
            <mxPoint x="470" y="-640" as="targetPoint" />
            <Array as="points">
              <mxPoint x="720" y="-640" />
            </Array>
          </mxGeometry>
        </mxCell>
        <mxCell id="wzEOH2TxMQ3HN0bDWZ4B-68" value="" style="endArrow=none;html=1;" edge="1" parent="1" source="wzEOH2TxMQ3HN0bDWZ4B-14">
          <mxGeometry width="50" height="50" relative="1" as="geometry">
            <mxPoint x="515" y="-620.7106781186548" as="sourcePoint" />
            <mxPoint x="515" y="-640" as="targetPoint" />
          </mxGeometry>
        </mxCell>
        <mxCell id="wzEOH2TxMQ3HN0bDWZ4B-69" value="" style="endArrow=none;html=1;" edge="1" parent="1">
          <mxGeometry width="50" height="50" relative="1" as="geometry">
            <mxPoint x="440" y="-640" as="sourcePoint" />
            <mxPoint x="440" y="-656" as="targetPoint" />
          </mxGeometry>
        </mxCell>
      </root>
    </mxGraphModel>
  </diagram>
</mxfile>
